<?xml version="1.0" encoding="UTF-8"?>
<svg width="37px" height="37px" viewBox="0 0 37 37" version="1.1" xmlns="http://www.w3.org/2000/svg" xmlns:xlink="http://www.w3.org/1999/xlink">
    <title>favicon Citas React</title>
    <g id="Page-1" stroke="none" stroke-width="1" fill="none" fill-rule="evenodd">
        <g id="Icono">
            <polygon id="Fill-1" points="0 37 37 37 37 0 0 0"></polygon>
            <path d="M22,6 C23.6568641,6 25,8.36585256 25,10.3704216 C25,12.3749906 23.6568641,14 22,14 C20.3431679,14 19,12.3749906 19,10.3704216 C19,8.36585256 20.3431679,6 22,6" id="Fill-3" fill="#A25B32"></path>
            <path d="M15,6 C16.6568321,6 18,8.36585256 18,10.3704216 C18,12.3749906 16.6568321,14 15,14 C13.3431359,14 12,12.3749906 12,10.3704216 C12,8.36585256 13.3431359,6 15,6" id="Fill-4" fill="#A25B32"></path>
            <path d="M6.31600696,16.7638937 C5.70433621,15.0751295 5.97221532,12.6459922 7.19319063,12.1081418 C8.41419377,11.5702914 10.1258864,13.1274481 10.7375572,14.8161815 C11.3492279,16.5049457 10.8552814,18.3099679 9.63427828,18.8477875 C8.41330298,19.3856686 6.9276777,18.4526578 6.31600696,16.7638937" id="Fill-5" fill="#A25B32"></path>
            <path d="M30.6840335,16.7638937 C30.072337,18.4526578 28.5866889,19.3856686 27.3656899,18.8477875 C26.1447188,18.3099679 25.650774,16.5049457 26.2624426,14.8161815 C26.8740835,13.1274481 28.5857981,11.5702914 29.8067971,12.1081418 C31.0278239,12.6459922 31.2956186,15.0751295 30.6840335,16.7638937" id="Fill-6" fill="#A25B32"></path>
            <path d="M21.546339,23.7299701 C21.1517618,24.4620968 20.5289974,25.1070297 20.0031932,25.6087313 C19.7205314,25.8784391 19.4236561,26.1308901 19.1142669,26.3641703 C19.1136798,26.364641 19.1130927,26.3650489 19.1124129,26.3655509 C18.7489509,26.6372039 18.2510483,26.6372039 17.8875553,26.3655509 C17.8869373,26.3650489 17.8863193,26.364641 17.8857323,26.3641703 C17.5763739,26.1308901 17.2794678,25.8784391 16.9968059,25.6087313 C16.4710018,25.1070297 15.8482373,24.4620968 15.4536602,23.7299701 C15.127771,23.1252298 14.9575497,22.4610949 15.1262569,21.7690039 C15.2879192,21.1056847 15.8035577,20.5229703 16.4357772,20.4416125 C17.16678,20.3475473 18.0178863,20.8698943 18.4999996,21.4699282 C18.982082,20.8698943 19.8331883,20.3475473 20.564222,20.4416125 C21.1964723,20.5229703 21.712049,21.1056847 21.8737422,21.7690039 C22.0424185,22.4610949 21.8722282,23.1252298 21.546339,23.7299701 Z M28.8559653,25.4327122 C28.5455564,24.0190996 27.8055003,22.7442943 26.9868377,21.5628325 C25.0689209,18.7949706 21.9970282,16 18.5,16 C15.0173697,16 11.9315417,18.7943431 10.0131615,21.5628325 C9.19449888,22.7442943 8.45444274,24.0190996 8.14403383,25.4327122 C7.83356311,26.8463561 8.00335178,28.4271084 8.865767,29.5755 C9.72815132,30.7238915 11.3617377,31.2971304 12.639216,30.6755726 C13.3987383,30.3060892 14.0134073,29.5606905 14.8512889,29.4890906 C15.6204826,29.4233266 16.3002552,29.9493446 16.9417752,30.38911 C17.4054729,30.7069485 17.9644005,30.9962349 18.5,31 C19.0355677,30.9962349 19.5945263,30.7069485 20.0582239,30.38911 C20.6997439,29.9493446 21.3794857,29.4233266 22.1487102,29.4890906 C22.9865918,29.5606905 23.6012608,30.3060892 24.3607832,30.6755726 C25.6382614,31.2971304 27.2718478,30.7238915 28.134263,29.5755 C28.9966474,28.4271084 29.166436,26.8463561 28.8559653,25.4327122 L28.8559653,25.4327122 Z" id="Fill-7" fill="#A25B32"></path>
        </g>
    </g>
</svg>